<svg viewBox="0 0 1280 720" xmlns="http://www.w3.org/2000/svg">
  <g fill="none" fill-rule="evenodd">
    <path fill="#FFF" d="M0 0h1280v720H0z"/>
    <path fill-opacity=".06" fill="#000" d="M0 0h1280v720H0z"/>
    <g transform="translate(455 220)" fill="#000" fill-opacity=".1">
      <rect transform="matrix(1 0 0 -1 0 280)" y="110" width="720" height="60" rx="30"/>
      <rect transform="matrix(1 0 0 -1 0 500)" y="220" width="577" height="60" rx="30"/>
      <rect transform="matrix(1 0 0 -1 0 60)" width="480" height="60" rx="30"/>
    </g>
    <g transform="translate(106 275)" fill="#000" fill-opacity=".20372596">
      <rect transform="matrix(1 0 0 -1 0 60)" width="249" height="60" rx="30"/>
      <rect transform="matrix(1 0 0 -1 0 280)" y="110" width="113" height="60" rx="30"/>
    </g>
  </g>
</svg>
