<?xml version="1.0" encoding="UTF-8"?>
<svg width="1280px" height="720px" viewBox="0 0 1280 720" version="1.1" xmlns="http://www.w3.org/2000/svg" xmlns:xlink="http://www.w3.org/1999/xlink">
    <!-- Generator: Sketch 55.2 (78181) - https://sketchapp.com -->
    <title>leftRightCenter</title>
    <desc>Created with Sketch.</desc>
    <g id="Page-1" stroke="none" stroke-width="1" fill="none" fill-rule="evenodd">
        <g id="leftRightCenter">
            <rect fill="#FFFFFF" x="0" y="0" width="1280" height="720"></rect>
            <rect id="Rectangle" fill-opacity="0.06" fill="#000000" x="0" y="0" width="1280" height="720"></rect>
            <g id="Group" transform="translate(455.000000, 220.000000)" fill="#000000" fill-opacity="0.1">
                <rect id="Rectangle-Copy" transform="translate(360.000000, 140.000000) scale(1, -1) translate(-360.000000, -140.000000) " x="0" y="110" width="720" height="60" rx="30"></rect>
                <rect id="Rectangle-Copy-3" transform="translate(288.500000, 250.000000) scale(1, -1) translate(-288.500000, -250.000000) " x="0" y="220" width="577" height="60" rx="30"></rect>
                <rect id="Rectangle-Copy-2" transform="translate(240.000000, 30.000000) scale(1, -1) translate(-240.000000, -30.000000) " x="0" y="0" width="480" height="60" rx="30"></rect>
            </g>
            <g id="Group-2" transform="translate(106.000000, 275.000000)" fill="#000000" fill-opacity="0.203725962">
                <rect id="Rectangle" transform="translate(124.500000, 30.000000) scale(1, -1) translate(-124.500000, -30.000000) " x="0" y="0" width="249" height="60" rx="30"></rect>
                <rect id="Rectangle" transform="translate(56.500000, 140.000000) scale(1, -1) translate(-56.500000, -140.000000) " x="0" y="110" width="113" height="60" rx="30"></rect>
            </g>
        </g>
    </g>
</svg>